<svg xmlns="http://www.w3.org/2000/svg" width="19.265" height="41.238" viewBox="0 0 19.265 41.238">
  <path id="Path_93" data-name="Path 93" d="M207.26,174.594c0-3.228-.013-6.457.012-9.684,0-.544-.149-.714-.694-.692-1.006.041-2.014,0-3.022.019-.408.01-.558-.1-.554-.535q.03-3.021,0-6.044c0-.387.113-.515.5-.506,1.03.024,2.062-.029,3.09.022.6.029.719-.183.707-.735q-.054-2.3,0-4.6a8.827,8.827,0,0,1,1.659-5.143,7.151,7.151,0,0,1,5.733-2.913c2.378-.106,4.761-.047,7.141-.073.332,0,.431.115.429.438q-.016,3.056,0,6.112c0,.362-.115.473-.471.468-1.145-.018-2.29-.009-3.434-.006a2.267,2.267,0,0,0-2.531,2.3c-.076,1.209-.021,2.426-.049,3.639-.01.432.247.4.532.4,1.74,0,3.48.017,5.22-.012.511-.009.679.109.621.646-.219,2.024-.407,4.052-.581,6.081-.039.458-.249.545-.66.538-1.372-.021-2.746-.015-4.12-.006-.987.006-.891-.145-.891.862,0,6.319-.013,12.638.014,18.957,0,.667-.168.833-.828.821q-3.536-.065-7.074,0c-.664.013-.774-.212-.769-.8C207.273,180.959,207.26,177.777,207.26,174.594Z" transform="translate(-203.002 -143.708)" fill="#fff" fill-rule="evenodd"/>
</svg>
