<svg xmlns="http://www.w3.org/2000/svg" xmlns:xlink="http://www.w3.org/1999/xlink" width="42.918" height="42.918" viewBox="0 0 42.918 42.918">
  <defs>
    <clipPath id="clip-path">
      <rect id="Rectangle_134" data-name="Rectangle 134" width="42.918" height="42.918" fill="#fff"/>
    </clipPath>
  </defs>
  <g id="Group_167" data-name="Group 167" clip-path="url(#clip-path)">
    <path id="Path_94" data-name="Path 94" d="M49.321,31.725c5.73,0,6.408.022,8.671.125a11.877,11.877,0,0,1,3.985.739,7.107,7.107,0,0,1,4.073,4.073,11.877,11.877,0,0,1,.739,3.985c.1,2.263.125,2.941.125,8.671s-.022,6.409-.125,8.671a11.877,11.877,0,0,1-.739,3.985,7.106,7.106,0,0,1-4.073,4.073,11.87,11.87,0,0,1-3.985.739c-2.263.1-2.941.125-8.671.125s-6.409-.022-8.671-.125a11.87,11.87,0,0,1-3.985-.739,7.106,7.106,0,0,1-4.073-4.073,11.874,11.874,0,0,1-.739-3.985c-.1-2.263-.125-2.941-.125-8.671s.022-6.408.125-8.671a11.874,11.874,0,0,1,.739-3.985,7.106,7.106,0,0,1,4.073-4.073,11.877,11.877,0,0,1,3.985-.739c2.263-.1,2.942-.125,8.671-.125m0-3.866c-5.828,0-6.559.025-8.848.129a15.753,15.753,0,0,0-5.209,1,10.973,10.973,0,0,0-6.276,6.276,15.746,15.746,0,0,0-1,5.209c-.1,2.289-.129,3.019-.129,8.847s.025,6.559.129,8.848a15.746,15.746,0,0,0,1,5.209,10.973,10.973,0,0,0,6.276,6.276,15.753,15.753,0,0,0,5.209,1c2.289.1,3.02.129,8.848.129s6.559-.025,8.848-.129a15.754,15.754,0,0,0,5.209-1,10.973,10.973,0,0,0,6.276-6.276,15.748,15.748,0,0,0,1-5.209c.1-2.289.129-3.019.129-8.848s-.025-6.559-.129-8.847a15.748,15.748,0,0,0-1-5.209,10.973,10.973,0,0,0-6.276-6.276,15.754,15.754,0,0,0-5.209-1c-2.289-.1-3.02-.129-8.848-.129" transform="translate(-27.862 -27.859)" fill="#fff"/>
    <path id="Path_95" data-name="Path 95" d="M149.869,138.846a11.02,11.02,0,1,0,11.02,11.02,11.02,11.02,0,0,0-11.02-11.02m0,18.173a7.153,7.153,0,1,1,7.153-7.153,7.153,7.153,0,0,1-7.153,7.153" transform="translate(-128.409 -128.407)" fill="#fff"/>
    <path id="Path_96" data-name="Path 96" d="M355.556,109.415a2.575,2.575,0,1,1-2.575-2.575,2.575,2.575,0,0,1,2.575,2.575" transform="translate(-320.067 -99.411)" fill="#fff"/>
  </g>
</svg>
