<svg id="mail" xmlns="http://www.w3.org/2000/svg" width="38.118" height="26.207" viewBox="0 0 38.118 26.207">
  <g id="Group_30" data-name="Group 30" transform="translate(25.268 4.832)">
    <g id="Group_29" data-name="Group 29">
      <path id="Path_28" data-name="Path 28" d="M339.392,153.363l12.851,8.124V144.9Z" transform="translate(-339.392 -144.896)" fill="#fff"/>
    </g>
  </g>
  <g id="Group_32" data-name="Group 32" transform="translate(0 4.832)">
    <g id="Group_31" data-name="Group 31">
      <path id="Path_29" data-name="Path 29" d="M0,144.9v16.591l12.851-8.124Z" transform="translate(0 -144.896)" fill="#fff"/>
    </g>
  </g>
  <g id="Group_34" data-name="Group 34" transform="translate(0.071 0)">
    <g id="Group_33" data-name="Group 33">
      <path id="Path_30" data-name="Path 30" d="M36.625,80H3.271A2.353,2.353,0,0,0,.96,82.027l18.988,12.51,18.988-12.51A2.353,2.353,0,0,0,36.625,80Z" transform="translate(-0.96 -80)" fill="#fff"/>
    </g>
  </g>
  <g id="Group_36" data-name="Group 36" transform="translate(0.076 14.735)">
    <g id="Group_35" data-name="Group 35" transform="translate(0 0)">
      <path id="Path_31" data-name="Path 31" d="M24.033,277.922l-3.371,2.22a1.2,1.2,0,0,1-1.31,0l-3.371-2.223L1.024,287.381a2.349,2.349,0,0,0,2.306,2.011H36.684a2.349,2.349,0,0,0,2.306-2.011Z" transform="translate(-1.024 -277.92)" fill="#fff"/>
    </g>
  </g>
</svg>
