<svg xmlns="http://www.w3.org/2000/svg" xmlns:xlink="http://www.w3.org/1999/xlink" viewBox="0 0 100 77.6"><defs><style>.cls-1{fill:none;}.cls-2{clip-path:url(#clip-path);}.cls-3{fill:#ff5f00;}.cls-4{fill:#eb001b;}.cls-5{fill:#f79e1b;}</style><clipPath id="clip-path" transform="translate(-23.39 -7.64)"><rect class="cls-1" width="146.79" height="92.88"/></clipPath></defs><g id="Layer_2" data-name="Layer 2"><g id="svg3409"><g class="cls-2"><g id="layer1"><g id="g13"><g id="g15"><path d="M41.59,85.07V79.92a3,3,0,0,0-3.26-3.26,3.38,3.38,0,0,0-2.92,1.46,3,3,0,0,0-2.75-1.46,2.75,2.75,0,0,0-2.4,1.2v-1h-1.8v8.24h1.8V80.52c0-1.46.77-2.15,2-2.15S34,79.15,34,80.52v4.55h1.8V80.52a1.9,1.9,0,0,1,2-2.15c1.21,0,1.81.78,1.81,2.15v4.55Zm26.7-8.24H65.37V74.34H63.56v2.49H61.93v1.63h1.63v3.78c0,1.88.78,3,2.84,3a4.84,4.84,0,0,0,2.23-.6l-.52-1.55a2.74,2.74,0,0,1-1.54.43c-.86,0-1.2-.51-1.2-1.37V78.46h2.92Zm15.27-.17a2.4,2.4,0,0,0-2.14,1.2v-1h-1.8v8.24h1.8V80.43c0-1.37.6-2.14,1.72-2.14a4.74,4.74,0,0,1,1.11.17l.52-1.72a6.16,6.16,0,0,0-1.21-.08Zm-23.09.86a5.79,5.79,0,0,0-3.34-.86c-2.06,0-3.44,1-3.44,2.66,0,1.37,1,2.14,2.84,2.4l.85.09c.95.17,1.46.43,1.46.86,0,.6-.68,1-1.88,1a4.72,4.72,0,0,1-2.75-.86l-.86,1.37a6,6,0,0,0,3.52,1c2.4,0,3.78-1.12,3.78-2.66s-1.12-2.23-2.84-2.49L57,80c-.78-.08-1.38-.25-1.38-.77s.6-.94,1.55-.94A6.26,6.26,0,0,1,59.7,79l.77-1.45Zm47.9-.86a2.39,2.39,0,0,0-2.14,1.2v-1h-1.81v8.24h1.81V80.43c0-1.37.6-2.14,1.71-2.14a4.82,4.82,0,0,1,1.12.17l.51-1.72a6.05,6.05,0,0,0-1.2-.08ZM85.37,81a4.12,4.12,0,0,0,4.37,4.29,4.29,4.29,0,0,0,2.92-.94l-.86-1.46a3.47,3.47,0,0,1-2.14.77A2.44,2.44,0,0,1,87.17,81a2.53,2.53,0,0,1,2.49-2.66,3.47,3.47,0,0,1,2.14.77l.86-1.46a4.25,4.25,0,0,0-2.92-.94A4.12,4.12,0,0,0,85.37,81ZM102,81V76.83h-1.8v1a3.11,3.11,0,0,0-2.58-1.2,4.29,4.29,0,0,0,0,8.58,2.91,2.91,0,0,0,2.58-1.2v1H102V81Zm-6.61,0a2.5,2.5,0,1,1,5,0,2.5,2.5,0,1,1-5,0ZM73.86,76.66A4.29,4.29,0,0,0,74,85.24a5.23,5.23,0,0,0,3.35-1.12l-.86-1.28a4.13,4.13,0,0,1-2.4.86,2.31,2.31,0,0,1-2.49-2h6.09V81c.09-2.66-1.46-4.37-3.77-4.37h0Zm0,1.54a2,2,0,0,1,2.07,2h-4.3a2.18,2.18,0,0,1,2.23-2ZM118.59,81V73.57h-1.81v4.29a3.1,3.1,0,0,0-2.57-1.2,4.29,4.29,0,0,0,0,8.58,2.88,2.88,0,0,0,2.57-1.2v1h1.81V81ZM112,81a2.5,2.5,0,1,1,5,0,2.5,2.5,0,1,1-5,0ZM51.72,81V76.83h-1.8v1a3.11,3.11,0,0,0-2.58-1.2,4.29,4.29,0,0,0,0,8.58A2.91,2.91,0,0,0,49.92,84v1h1.8V81ZM45,81a2.5,2.5,0,1,1,5,0,2.5,2.5,0,1,1-5,0Z" transform="translate(-23.39 -7.64)"/></g><rect id="rect19" class="cls-3" x="36.48" y="6.61" width="27.04" height="48.58"/><path class="cls-4" d="M61.59,38.55a31,31,0,0,1,11.76-24.3,30.91,30.91,0,1,0,0,48.59A30.87,30.87,0,0,1,61.59,38.55Z" transform="translate(-23.39 -7.64)"/><path id="path22" class="cls-5" d="M123.39,38.55A30.86,30.86,0,0,1,73.44,62.84a31,31,0,0,0,0-48.59,30.86,30.86,0,0,1,50,24.3Z" transform="translate(-23.39 -7.64)"/></g></g></g></g></g></svg>