<svg id="Group_168" data-name="Group 168" xmlns="http://www.w3.org/2000/svg" width="41.667" height="33.864" viewBox="0 0 41.667 33.864">
  <path id="Path_27" data-name="Path 27" d="M68.378,126.731C84.1,126.731,92.7,113.7,92.7,102.409c0-.37-.007-.739-.024-1.105a17.4,17.4,0,0,0,4.265-4.426,17.068,17.068,0,0,1-4.909,1.346,8.578,8.578,0,0,0,3.759-4.729,17.135,17.135,0,0,1-5.428,2.075,8.556,8.556,0,0,0-14.568,7.8,24.27,24.27,0,0,1-17.621-8.932,8.556,8.556,0,0,0,2.646,11.413,8.484,8.484,0,0,1-3.872-1.069c0,.036,0,.072,0,.109a8.552,8.552,0,0,0,6.858,8.381,8.534,8.534,0,0,1-3.861.146,8.558,8.558,0,0,0,7.986,5.938,17.155,17.155,0,0,1-10.617,3.659,17.436,17.436,0,0,1-2.039-.118,24.2,24.2,0,0,0,13.1,3.84" transform="translate(-55.274 -92.868)" fill="#fff"/>
</svg>
